{
  "accessors": [
    {
      "bufferView": 2,
      "componentType": 5126,
      "count": 65532,
      "max": [
        42.63789749145508,
        10.536040306091309,
        -8.387238502502441
      ],
      "min": [
        -32.54450607299805,
        -13.234871864318848,
        -79.72711181640625
      ],
      "type": "VEC3"
    },
    {
      "bufferView": 2,
      "byteOffset": 786384,
      "componentType": 5126,
      "count": 65532,
      "max": [
        0.9991246461868286,
        0.999995768070221,
        0.9995816349983215
      ],
      "min": [
        -0.9999290108680725,
        -0.9749542474746704,
        -0.9768074750900269
      ],
      "type": "VEC3"
    },
    {
      "bufferView": 1,
      "componentType": 5126,
      "count": 65532,
      "max": [
        0.9973992109298706,
        0.9977996349334717
      ],
      "min": [
        0.01669265143573284,
        0.004503924399614334
      ],
      "type": "VEC2"
    },
    {
      "bufferView": 0,
      "componentType": 5125,
      "count": 365961,
      "type": "SCALAR"
    },
    {
      "bufferView": 2,
      "byteOffset": 1572768,
      "componentType": 5126,
      "count": 65532,
      "max": [
        59.5103645324707,
        9.328730583190918,
        18.30897331237793
      ],
      "min": [
        -37.958778381347656,
        -24.37554168701172,
        -79.05949401855469
      ],
      "type": "VEC3"
    },
    {
      "bufferView": 2,
      "byteOffset": 2359152,
      "componentType": 5126,
      "count": 65532,
      "max": [
        0.9980975985527039,
        0.9999971985816956,
        0.9981958270072937
      ],
      "min": [
        -0.9991401433944702,
        -0.9728032350540161,
        -0.9986100792884827
      ],
      "type": "VEC3"
    },
    {
      "bufferView": 1,
      "byteOffset": 524256,
      "componentType": 5126,
      "count": 65532,
      "max": [
        0.9998777508735657,
        0.9954310059547424
      ],
      "min": [
        9.166659583570436e-05,
        0.003155197948217392
      ],
      "type": "VEC2"
    },
    {
      "bufferView": 0,
      "byteOffset": 1463844,
      "componentType": 5125,
      "count": 361914,
      "type": "SCALAR"
    },
    {
      "bufferView": 2,
      "byteOffset": 3145536,
      "componentType": 5126,
      "count": 65532,
      "max": [
        60.28322219848633,
        15.804952621459961,
        18.659387588500977
      ],
      "min": [
        -54.36790466308594,
        -24.27864646911621,
        -76.44709777832031
      ],
      "type": "VEC3"
    },
    {
      "bufferView": 2,
      "byteOffset": 3931920,
      "componentType": 5126,
      "count": 65532,
      "max": [
        0.999295711517334,
        0.9999966025352478,
        0.9999585151672363
      ],
      "min": [
        -0.9996989369392395,
        -0.9982696175575256,
        -0.9998080134391785
      ],
      "type": "VEC3"
    },
    {
      "bufferView": 1,
      "byteOffset": 1048512,
      "componentType": 5126,
      "count": 65532,
      "max": [
        0.9999977350234985,
        0.9998611807823181
      ],
      "min": [
        9.639081326895393e-06,
        4.396960139274597e-05
      ],
      "type": "VEC2"
    },
    {
      "bufferView": 0,
      "byteOffset": 2911500,
      "componentType": 5125,
      "count": 340107,
      "type": "SCALAR"
    },
    {
      "bufferView": 2,
      "byteOffset": 4718304,
      "componentType": 5126,
      "count": 65532,
      "max": [
        59.749263763427734,
        19.96074104309082,
        15.552162170410156
      ],
      "min": [
        -51.21882629394531,
        -23.876537322998047,
        -74.36875915527344
      ],
      "type": "VEC3"
    },
    {
      "bufferView": 2,
      "byteOffset": 5504688,
      "componentType": 5126,
      "count": 65532,
      "max": [
        0.999670684337616,
        0.9999924898147583,
        0.9999678730964661
      ],
      "min": [
        -0.9997483491897583,
        -0.9991825819015503,
        -0.9998155832290649
      ],
      "type": "VEC3"
    },
    {
      "bufferView": 1,
      "byteOffset": 1572768,
      "componentType": 5126,
      "count": 65532,
      "max": [
        0.9999740719795227,
        0.9998421669006348
      ],
      "min": [
        3.4767091960929974e-07,
        4.43820608779788e-05
      ],
      "type": "VEC2"
    },
    {
      "bufferView": 0,
      "byteOffset": 4271928,
      "componentType": 5125,
      "count": 335379,
      "type": "SCALAR"
    },
    {
      "bufferView": 2,
      "byteOffset": 6291072,
      "componentType": 5126,
      "count": 54323,
      "max": [
        29.88951301574707,
        9.056868553161621,
        0.8108757138252258
      ],
      "min": [
        -50.48591232299805,
        -19.113298416137695,
        -82.66181182861328
      ],
      "type": "VEC3"
    },
    {
      "bufferView": 2,
      "byteOffset": 6942948,
      "componentType": 5126,
      "count": 54323,
      "max": [
        0.9994388222694397,
        0.9999856352806091,
        0.9998434782028198
      ],
      "min": [
        -0.9995226263999939,
        -0.9988850951194763,
        -0.9997694492340088
      ],
      "type": "VEC3"
    },
    {
      "bufferView": 1,
      "byteOffset": 2097024,
      "componentType": 5126,
      "count": 54323,
      "max": [
        0.9999982714653015,
        0.9984817504882813
      ],
      "min": [
        6.580958142876625e-07,
        0.002091962844133377
      ],
      "type": "VEC2"
    },
    {
      "bufferView": 0,
      "byteOffset": 5613444,
      "componentType": 5125,
      "count": 251208,
      "type": "SCALAR"
    }
  ],
  "asset": {
    "extras": {
      "author": "Megalith Archive (https://sketchfab.com/megalitharchive)",
      "license": "CC-BY-4.0 (http://creativecommons.org/licenses/by/4.0/)",
      "source": "https://sketchfab.com/3d-models/giza-pyramid-087cf9ee38a64bc8a805ead88a742e58",
      "title": "Giza Pyramid"
    },
    "generator": "Sketchfab-12.68.0",
    "version": "2.0"
  },
  "bufferViews": [
    {
      "buffer": 0,
      "byteLength": 6618276,
      "name": "floatBufferViews",
      "target": 34963
    },
    {
      "buffer": 0,
      "byteLength": 2531608,
      "byteOffset": 6618276,
      "byteStride": 8,
      "name": "floatBufferViews",
      "target": 34962
    },
    {
      "buffer": 0,
      "byteLength": 7594824,
      "byteOffset": 9149884,
      "byteStride": 12,
      "name": "floatBufferViews",
      "target": 34962
    }
  ],
  "buffers": [
    {
      "byteLength": 16744708,
      "uri": "scene.bin"
    }
  ],
  "extensionsUsed": [
    "KHR_materials_unlit"
  ],
  "images": [
    {
      "uri": "textures/material_0_baseColor.jpeg"
    }
  ],
  "materials": [
    {
      "extensions": {
        "KHR_materials_unlit": {}
      },
      "name": "material_0",
      "pbrMetallicRoughness": {
        "baseColorTexture": {
          "index": 0
        },
        "metallicFactor": 0.0
      }
    }
  ],
  "meshes": [
    {
      "name": "Object_0",
      "primitives": [
        {
          "attributes": {
            "NORMAL": 1,
            "POSITION": 0,
            "TEXCOORD_0": 2
          },
          "indices": 3,
          "material": 0,
          "mode": 4
        }
      ]
    },
    {
      "name": "Object_1",
      "primitives": [
        {
          "attributes": {
            "NORMAL": 5,
            "POSITION": 4,
            "TEXCOORD_0": 6
          },
          "indices": 7,
          "material": 0,
          "mode": 4
        }
      ]
    },
    {
      "name": "Object_2",
      "primitives": [
        {
          "attributes": {
            "NORMAL": 9,
            "POSITION": 8,
            "TEXCOORD_0": 10
          },
          "indices": 11,
          "material": 0,
          "mode": 4
        }
      ]
    },
    {
      "name": "Object_3",
      "primitives": [
        {
          "attributes": {
            "NORMAL": 13,
            "POSITION": 12,
            "TEXCOORD_0": 14
          },
          "indices": 15,
          "material": 0,
          "mode": 4
        }
      ]
    },
    {
      "name": "Object_4",
      "primitives": [
        {
          "attributes": {
            "NORMAL": 17,
            "POSITION": 16,
            "TEXCOORD_0": 18
          },
          "indices": 19,
          "material": 0,
          "mode": 4
        }
      ]
    }
  ],
  "nodes": [
    {
      "children": [
        1
      ],
      "matrix": [
        0.9983119368553162,
        -0.05805513635277748,
        0.0017055702628567687,
        0.0,
        -0.016194486990571022,
        -0.3064402341842649,
        -0.9517521262168885,
        0.0,
        0.05577675625681877,
        0.9501178860664369,
        -0.3068631291389463,
        0.0,
        0.646356463432312,
        9.868098258972168,
        -2.2263929843902566,
        1.0
      ],
      "name": "Sketchfab_model"
    },
    {
      "children": [
        2
      ],
      "name": "root"
    },
    {
      "children": [
        3
      ],
      "matrix": [
        1.0,
        0.0,
        0.0,
        0.0,
        0.0,
        2.220446049250313e-16,
        1.0,
        0.0,
        0.0,
        -1.0,
        2.220446049250313e-16,
        0.0,
        0.0,
        0.0,
        0.0,
        1.0
      ],
      "name": "GLTF_SceneRootNode"
    },
    {
      "children": [
        4,
        5,
        6,
        7,
        8
      ],
      "name": "_0"
    },
    {
      "mesh": 0,
      "name": "Object_4"
    },
    {
      "mesh": 1,
      "name": "Object_5"
    },
    {
      "mesh": 2,
      "name": "Object_6"
    },
    {
      "mesh": 3,
      "name": "Object_7"
    },
    {
      "mesh": 4,
      "name": "Object_8"
    }
  ],
  "samplers": [
    {
      "magFilter": 9729,
      "minFilter": 9729,
      "wrapS": 10497,
      "wrapT": 10497
    }
  ],
  "scene": 0,
  "scenes": [
    {
      "name": "Sketchfab_Scene",
      "nodes": [
        0
      ]
    }
  ],
  "textures": [
    {
      "sampler": 0,
      "source": 0
    }
  ]
}
