{
  "accessors": [
    {
      "bufferView": 2,
      "componentType": 5126,
      "count": 65532,
      "max": [
        5.641330718994141,
        2.8060202598571777,
        -10.380195617675781
      ],
      "min": [
        -2.4688127040863037,
        0.1481458991765976,
        -17.293489456176758
      ],
      "type": "VEC3"
    },
    {
      "bufferView": 2,
      "byteOffset": 786384,
      "componentType": 5126,
      "count": 65532,
      "max": [
        0.9999974370002747,
        0.999999463558197,
        1.0
      ],
      "min": [
        -0.9999775290489197,
        -0.9990866184234619,
        -0.9999858736991882
      ],
      "type": "VEC3"
    },
    {
      "bufferView": 1,
      "componentType": 5126,
      "count": 65532,
      "max": [
        0.9998810887336731,
        0.9934141039848328
      ],
      "min": [
        0.09096862375736237,
        6.015598773956299e-05
      ],
      "type": "VEC2"
    },
    {
      "bufferView": 0,
      "componentType": 5125,
      "count": 367062,
      "type": "SCALAR"
    },
    {
      "bufferView": 2,
      "byteOffset": 1572768,
      "componentType": 5126,
      "count": 65532,
      "max": [
        7.097326278686523,
        2.512141466140747,
        -8.212502479553223
      ],
      "min": [
        -4.386960506439209,
        -0.4505579173564911,
        -17.542158126831055
      ],
      "type": "VEC3"
    },
    {
      "bufferView": 2,
      "byteOffset": 2359152,
      "componentType": 5126,
      "count": 65532,
      "max": [
        0.9999843239784241,
        0.9999993443489075,
        1.0
      ],
      "min": [
        -0.9999827146530151,
        -0.9997974038124084,
        -0.99990314245224
      ],
      "type": "VEC3"
    },
    {
      "bufferView": 1,
      "byteOffset": 524256,
      "componentType": 5126,
      "count": 65532,
      "max": [
        0.9999508857727051,
        0.9965404272079468
      ],
      "min": [
        4.6367760660359636e-05,
        0.002116939052939415
      ],
      "type": "VEC2"
    },
    {
      "bufferView": 0,
      "byteOffset": 1468248,
      "componentType": 5125,
      "count": 349377,
      "type": "SCALAR"
    },
    {
      "bufferView": 2,
      "byteOffset": 3145536,
      "componentType": 5126,
      "count": 65532,
      "max": [
        6.553566932678223,
        2.5311148166656494,
        -4.398693084716797
      ],
      "min": [
        -7.052903652191162,
        -0.892490804195404,
        -16.832754135131836
      ],
      "type": "VEC3"
    },
    {
      "bufferView": 2,
      "byteOffset": 3931920,
      "componentType": 5126,
      "count": 65532,
      "max": [
        0.999999463558197,
        0.9999998211860657,
        1.0
      ],
      "min": [
        -0.9999954700469971,
        -0.9999407529830933,
        -0.9998241066932678
      ],
      "type": "VEC3"
    },
    {
      "bufferView": 1,
      "byteOffset": 1048512,
      "componentType": 5126,
      "count": 65532,
      "max": [
        0.9999862909317017,
        0.9969685077667236
      ],
      "min": [
        0.00012453558156266809,
        0.00021202958305366337
      ],
      "type": "VEC2"
    },
    {
      "bufferView": 0,
      "byteOffset": 2865756,
      "componentType": 5125,
      "count": 352812,
      "type": "SCALAR"
    },
    {
      "bufferView": 2,
      "byteOffset": 4718304,
      "componentType": 5126,
      "count": 65532,
      "max": [
        6.3905205726623535,
        2.1714260578155518,
        -3.579667091369629
      ],
      "min": [
        -1.7710249423980713,
        -1.3316855430603027,
        -10.735272407531738
      ],
      "type": "VEC3"
    },
    {
      "bufferView": 2,
      "byteOffset": 5504688,
      "componentType": 5126,
      "count": 65532,
      "max": [
        0.9999974370002747,
        0.9999985098838806,
        1.0
      ],
      "min": [
        -0.9999803304672241,
        -0.9999141693115234,
        -0.9999589323997498
      ],
      "type": "VEC3"
    },
    {
      "bufferView": 1,
      "byteOffset": 1572768,
      "componentType": 5126,
      "count": 65532,
      "max": [
        0.9999094009399414,
        0.9968948364257813
      ],
      "min": [
        2.780929207801819e-05,
        0.003937885165214539
      ],
      "type": "VEC2"
    },
    {
      "bufferView": 0,
      "byteOffset": 4277004,
      "componentType": 5125,
      "count": 359790,
      "type": "SCALAR"
    },
    {
      "bufferView": 2,
      "byteOffset": 6291072,
      "componentType": 5126,
      "count": 65532,
      "max": [
        7.11412239074707,
        2.4479687213897705,
        -3.6086244583129883
      ],
      "min": [
        -6.422499656677246,
        -1.3312671184539795,
        -17.062231063842773
      ],
      "type": "VEC3"
    },
    {
      "bufferView": 2,
      "byteOffset": 7077456,
      "componentType": 5126,
      "count": 65532,
      "max": [
        0.9999550580978394,
        0.999995768070221,
        1.0
      ],
      "min": [
        -0.9999954700469971,
        -0.9985966086387634,
        -0.9998658299446106
      ],
      "type": "VEC3"
    },
    {
      "bufferView": 1,
      "byteOffset": 2097024,
      "componentType": 5126,
      "count": 65532,
      "max": [
        0.9999701976776123,
        0.9945595860481262
      ],
      "min": [
        0.0015365509316325188,
        0.0001927376724779606
      ],
      "type": "VEC2"
    },
    {
      "bufferView": 0,
      "byteOffset": 5716164,
      "componentType": 5125,
      "count": 325410,
      "type": "SCALAR"
    },
    {
      "bufferView": 2,
      "byteOffset": 7863840,
      "componentType": 5126,
      "count": 65532,
      "max": [
        -1.252496361732483,
        1.8883919715881348,
        -3.855137348175049
      ],
      "min": [
        -6.98449182510376,
        -1.3155804872512817,
        -10.694244384765625
      ],
      "type": "VEC3"
    },
    {
      "bufferView": 2,
      "byteOffset": 8650224,
      "componentType": 5126,
      "count": 65532,
      "max": [
        0.9999803304672241,
        0.9999994039535522,
        1.0
      ],
      "min": [
        -0.9999988079071045,
        -0.9999456405639648,
        -0.9999674558639526
      ],
      "type": "VEC3"
    },
    {
      "bufferView": 1,
      "byteOffset": 2621280,
      "componentType": 5126,
      "count": 65532,
      "max": [
        0.9998130202293396,
        0.9950602650642395
      ],
      "min": [
        0.0005633831024169922,
        0.003602363169193268
      ],
      "type": "VEC2"
    },
    {
      "bufferView": 0,
      "byteOffset": 7017804,
      "componentType": 5125,
      "count": 357114,
      "type": "SCALAR"
    },
    {
      "bufferView": 2,
      "byteOffset": 9436608,
      "componentType": 5126,
      "count": 7749,
      "max": [
        7.045022010803223,
        2.189833879470825,
        -7.70648193359375
      ],
      "min": [
        -2.863969326019287,
        0.01405051164329052,
        -17.264619827270508
      ],
      "type": "VEC3"
    },
    {
      "bufferView": 2,
      "byteOffset": 9529596,
      "componentType": 5126,
      "count": 7749,
      "max": [
        0.9999755620956421,
        0.9999871253967285,
        1.0
      ],
      "min": [
        -0.9999804496765137,
        -0.999180257320404,
        -0.9998975396156311
      ],
      "type": "VEC3"
    },
    {
      "bufferView": 1,
      "byteOffset": 3145536,
      "componentType": 5126,
      "count": 7749,
      "max": [
        0.9999808073043823,
        0.9943986535072327
      ],
      "min": [
        0.00016507736290805042,
        0.0021644271910190582
      ],
      "type": "VEC2"
    },
    {
      "bufferView": 0,
      "byteOffset": 8446260,
      "componentType": 5125,
      "count": 29355,
      "type": "SCALAR"
    }
  ],
  "asset": {
    "extras": {
      "author": "Megalith Archive (https://sketchfab.com/megalitharchive)",
      "license": "CC-BY-4.0 (http://creativecommons.org/licenses/by/4.0/)",
      "source": "https://sketchfab.com/3d-models/stonehenge-29871f4861c548f9b89579f6a167b4b3",
      "title": "Stonehenge"
    },
    "generator": "Sketchfab-12.68.0",
    "version": "2.0"
  },
  "bufferViews": [
    {
      "buffer": 0,
      "byteLength": 8563680,
      "name": "floatBufferViews",
      "target": 34963
    },
    {
      "buffer": 0,
      "byteLength": 3207528,
      "byteOffset": 8563680,
      "byteStride": 8,
      "name": "floatBufferViews",
      "target": 34962
    },
    {
      "buffer": 0,
      "byteLength": 9622584,
      "byteOffset": 11771208,
      "byteStride": 12,
      "name": "floatBufferViews",
      "target": 34962
    }
  ],
  "buffers": [
    {
      "byteLength": 21393792,
      "uri": "scene.bin"
    }
  ],
  "extensionsUsed": [
    "KHR_materials_unlit"
  ],
  "images": [
    {
      "uri": "textures/material_0_baseColor.jpeg"
    }
  ],
  "materials": [
    {
      "extensions": {
        "KHR_materials_unlit": {}
      },
      "name": "material_0",
      "pbrMetallicRoughness": {
        "baseColorTexture": {
          "index": 0
        },
        "metallicFactor": 0.0
      }
    }
  ],
  "meshes": [
    {
      "name": "Object_0",
      "primitives": [
        {
          "attributes": {
            "NORMAL": 1,
            "POSITION": 0,
            "TEXCOORD_0": 2
          },
          "indices": 3,
          "material": 0,
          "mode": 4
        }
      ]
    },
    {
      "name": "Object_1",
      "primitives": [
        {
          "attributes": {
            "NORMAL": 5,
            "POSITION": 4,
            "TEXCOORD_0": 6
          },
          "indices": 7,
          "material": 0,
          "mode": 4
        }
      ]
    },
    {
      "name": "Object_2",
      "primitives": [
        {
          "attributes": {
            "NORMAL": 9,
            "POSITION": 8,
            "TEXCOORD_0": 10
          },
          "indices": 11,
          "material": 0,
          "mode": 4
        }
      ]
    },
    {
      "name": "Object_3",
      "primitives": [
        {
          "attributes": {
            "NORMAL": 13,
            "POSITION": 12,
            "TEXCOORD_0": 14
          },
          "indices": 15,
          "material": 0,
          "mode": 4
        }
      ]
    },
    {
      "name": "Object_4",
      "primitives": [
        {
          "attributes": {
            "NORMAL": 17,
            "POSITION": 16,
            "TEXCOORD_0": 18
          },
          "indices": 19,
          "material": 0,
          "mode": 4
        }
      ]
    },
    {
      "name": "Object_5",
      "primitives": [
        {
          "attributes": {
            "NORMAL": 21,
            "POSITION": 20,
            "TEXCOORD_0": 22
          },
          "indices": 23,
          "material": 0,
          "mode": 4
        }
      ]
    },
    {
      "name": "Object_6",
      "primitives": [
        {
          "attributes": {
            "NORMAL": 25,
            "POSITION": 24,
            "TEXCOORD_0": 26
          },
          "indices": 27,
          "material": 0,
          "mode": 4
        }
      ]
    }
  ],
  "nodes": [
    {
      "children": [
        1
      ],
      "matrix": [
        -0.9049864411354065,
        -0.05488934740424166,
        0.421884685754776,
        0.0,
        0.424969345331192,
        -0.16328127682209034,
        0.89035964012146,
        0.0,
        0.02001461200416088,
        0.9850514531135559,
        0.17109364271163963,
        0.0,
        -4.511515140533447,
        2.758674860000615,
        -19.965795516967773,
        1.0
      ],
      "name": "Sketchfab_model"
    },
    {
      "children": [
        2
      ],
      "name": "root"
    },
    {
      "children": [
        3
      ],
      "matrix": [
        1.0,
        0.0,
        0.0,
        0.0,
        0.0,
        2.220446049250313e-16,
        1.0,
        0.0,
        0.0,
        -1.0,
        2.220446049250313e-16,
        0.0,
        0.0,
        0.0,
        0.0,
        1.0
      ],
      "name": "GLTF_SceneRootNode"
    },
    {
      "children": [
        4,
        5,
        6,
        7,
        8,
        9,
        10
      ],
      "name": "_0"
    },
    {
      "mesh": 0,
      "name": "Object_4"
    },
    {
      "mesh": 1,
      "name": "Object_5"
    },
    {
      "mesh": 2,
      "name": "Object_6"
    },
    {
      "mesh": 3,
      "name": "Object_7"
    },
    {
      "mesh": 4,
      "name": "Object_8"
    },
    {
      "mesh": 5,
      "name": "Object_9"
    },
    {
      "mesh": 6,
      "name": "Object_10"
    }
  ],
  "samplers": [
    {
      "magFilter": 9729,
      "minFilter": 9729,
      "wrapS": 10497,
      "wrapT": 10497
    }
  ],
  "scene": 0,
  "scenes": [
    {
      "name": "Sketchfab_Scene",
      "nodes": [
        0
      ]
    }
  ],
  "textures": [
    {
      "sampler": 0,
      "source": 0
    }
  ]
}
